<?xml version="1.0" encoding="UTF-8"?>
<svg width="26px" height="30px" viewBox="0 0 26 30" version="1.1" xmlns="http://www.w3.org/2000/svg" xmlns:xlink="http://www.w3.org/1999/xlink">
    <!-- Generator: Sketch 48.2 (47327) - http://www.bohemiancoding.com/sketch -->
    <title>Group 3</title>
    <desc>Created with Sketch.</desc>
    <defs></defs>
    <g id="Features-Page" stroke="none" stroke-width="1" fill="none" fill-rule="evenodd" transform="translate(-955.000000, -1713.000000)">
        <g id="Display" transform="translate(-24.000000, 1265.000000)">
            <g id="Group-3" transform="translate(980.000000, 449.000000)">
                <g id="Icon/09">
                    <g id="Page-1">
                        <path d="M3.0494383,27.4364255 L3.0494383,3.80502128 C3.0494383,2.70825532 3.93828936,2.71302128 5.03505532,2.71302128 L15.7388,2.71302128 C15.8561617,2.71302128 15.5815234,0.29787234 18.907566,1.74970213 L17.8781191,0.697021277 C17.4664596,0.285957447 16.9082468,0.0321702128 16.3262043,0.0321702128 L3.23709787,0.0321702128 C1.49573617,0.0321702128 0.0707148936,1.45719149 0.0707148936,3.19855319 L0.0707148936,24.4577021 C0.0707148936,26.1025532 1.40458723,27.4364255 3.0494383,27.4364255 Z" id="Fill-1" fill="#E5E7FD" opacity="0.325559701"></path>
                        <path d="M15.7388,0.778757447 L15.7388,5.73237447 C15.7388,6.9715234 16.7432255,7.97535319 17.9817787,7.97535319 L22.8647493,7.97535319" id="Stroke-3" stroke="#FFFFFF" stroke-width="2" stroke-linecap="round" stroke-linejoin="round"></path>
                        <path d="M4.16312052,27.2852851 L21.4920851,27.2852851 C22.7044255,27.2852851 23.6868085,26.3029021 23.6868085,25.0905617 L23.6868085,8.40375319 C23.6868085,7.82171064 23.4556596,7.26349787 23.044,6.8518383 L17.1330213,0.940859574 C16.7213617,0.5292 16.1631489,0.298051064 15.5811064,0.298051064 L2.49259574,0.298051064 C1.28025532,0.298051064 0.29787234,1.28043404 0.29787234,2.49277447 C0.29787234,10.3875382 0.29787234,16.3086109 0.29787234,20.2559928 C0.29787234,20.5736134 0.29787234,21.0500444 0.29787234,21.6852856" id="Stroke-5" stroke="#FFFFFF" stroke-width="2" stroke-linecap="round" stroke-linejoin="round"></path>
                        <path d="M9.82460426,17.2002809 L12.7860511,18.7647064" id="Stroke-7" stroke="#fff" stroke-width="2" stroke-linecap="round" stroke-linejoin="round"></path>
                        <path d="M9.82460426,15.2919915 L12.7860511,13.727566" id="Stroke-9" stroke="#fff" stroke-width="2" stroke-linecap="round" stroke-linejoin="round"></path>
                        <path d="M14.6703065,11.1698222 C15.4985307,11.1698222 16.1705786,11.8413259 16.1705786,12.6700943 C16.1705786,13.4983185 15.4985307,14.1698222 14.6703065,14.1698222 C13.8420823,14.1698222 13.1700344,13.4983185 13.1700344,12.6700943 C13.1700344,11.8413259 13.8420823,11.1698222 14.6703065,11.1698222 Z" id="Stroke-13" stroke="#fff" stroke-width="2" stroke-linecap="round" stroke-linejoin="round"></path>
                        <path d="M14.6703065,18 C15.5922979,18 16.3404316,18.7475279 16.3404316,19.6701251 C16.3404316,20.5921165 15.5922979,21.3396444 14.6703065,21.3396444 C13.748315,21.3396444 13.0001814,20.5921165 13.0001814,19.6701251 C13.0001814,18.7475279 13.748315,18 14.6703065,18 Z" id="Stroke-13-Copy" stroke="#fff" stroke-width="2" stroke-linecap="round" stroke-linejoin="round"></path>
                        <path d="M7.67030649,14.1698222 C8.49853068,14.1698222 9.17057857,14.8413259 9.17057857,15.6700943 C9.17057857,16.4983185 8.49853068,17.1698222 7.67030649,17.1698222 C6.84208229,17.1698222 6.1700344,16.4983185 6.1700344,15.6700943 C6.1700344,14.8413259 6.84208229,14.1698222 7.67030649,14.1698222 Z" id="Stroke-13-Copy-2" stroke="#fff" stroke-width="2" stroke-linecap="round" stroke-linejoin="round"></path>
                    </g>
                </g>
            </g>
        </g>
    </g>
</svg>